HIERARCHY
ROOT ui
{
	 OFFSET 0 0 0
	 CHANNELS 3 XPosition YPosition Z Position
	 EndSite
	 {
	 OFFSET 0 -1 0
	 }
}
ROOT li
{
	 OFFSET 0 0 0
	 CHANNELS 3 XPosition YPosition Z Position
	 EndSite
	 {
	 OFFSET 0 -1 0
	 }
}
ROOT ul
{
	 OFFSET 0 0 0
	 CHANNELS 3 XPosition YPosition Z Position
	 EndSite
	 {
	 OFFSET 0 -1 0
	 }
}
ROOT ll
{
	 OFFSET 0 0 0
	 CHANNELS 3 XPosition YPosition Z Position
	 EndSite
	 {
	 OFFSET 0 -1 0
	 }
}
ROOT tt
{
	 OFFSET 0 0 0
	 CHANNELS 3 XPosition YPosition Z Position
	 EndSite
	 {
	 OFFSET 0 -1 0
	 }
}
ROOT tb
{
	 OFFSET 0 0 0
	 CHANNELS 3 XPosition YPosition Z Position
	 EndSite
	 {
	 OFFSET 0 -1 0
	 }
}
ROOT td
{
	 OFFSET 0 0 0
	 CHANNELS 3 XPosition YPosition Z Position
	 EndSite
	 {
	 OFFSET 0 -1 0
	 }
}
ROOT v
{
	 OFFSET 0 0 0
	 CHANNELS 3 XPosition YPosition Z Position
	 EndSite
	 {
	 OFFSET 0 -1 0
	 }
}
ROOT bn
{
	 OFFSET 0 0 0
	 CHANNELS 3 XPosition YPosition Z Position
	 EndSite
	 {
	 OFFSET 0 -1 0
	 }
}
MOTION
Frames: 24
Frame Time: 0.002
4.0166598558425906E-4	0.00102190101146698	0		0.5718089599609375	-2.54124072265625	0		-1.0241405029296875	0.39742752075195314	0		-0.5496256103515625	-3.063566650390625	0		1.681698974609375	-0.916644287109375	0		3.140853271484375	-0.2740421142578125	0		4.49996044921875	0.15194168090820312	0		5.96622216796875	0.5184970703125	0		-0.36366738891601563	5.917708984375	0		
3.382140100002289E-4	8.882189989089966E-4	0		0.5467811889648437	-2.53802587890625	0		-1.02825830078125	0.39335391235351563	0		-0.4719318542480469	-3.080790771484375	0		1.699364013671875	-0.9360344848632812	0		3.166575927734375	-0.28954998779296875	0		4.4998974609375	0.15179226684570313	0		5.97330810546875	0.5179867553710937	0		-0.36371014404296875	5.917576171875	0		
2.6708900928497316E-4	7.510880231857299E-4	0		0.5945523681640625	-2.54883837890625	0		-1.028327392578125	0.39322189331054686	0		-0.5518140258789063	-3.065804443359375	0		1.6772623291015625	-0.9378712158203125	0		3.160602294921875	-0.282619384765625	0		4.49493994140625	0.15970208740234376	0		5.97325830078125	0.5176976318359375	0		-0.396832763671875	5.91190478515625	0		
1.8845799565315246E-4	6.127650141716003E-4	0		0.5684881591796875	-2.54661572265625	0		-1.033459228515625	0.38916070556640625	0		-0.39022293090820315	-3.08921142578125	0		1.68800830078125	-0.9501734008789062	0		3.148494873046875	-0.28460919189453127	0		4.4907783203125	0.15359190368652345	0		5.9660703125	0.5176348876953125	0		-0.37893167114257814	5.9075166015625	0		
-0.003939256906509399	-0.0024681599140167236	0		0.5523002319335938	-2.552531982421875	0		-1.028486572265625	0.39296051025390627	0		-0.5313323364257813	-3.088365478515625	0		1.6876341552734375	-0.9703215942382812	0		3.134408203125	-0.28457373046875	0		4.49966455078125	0.1512943878173828	0		5.96580908203125	0.4827220458984375	0		-0.39691510009765624	5.91163427734375	0		
0.011036381721496583	0.002186218976974487	0		0.5562555541992188	-2.547727783203125	0		-1.0126622924804687	0.3866105041503906	0		-0.49342706298828126	-3.087029541015625	0		1.696475830078125	-0.97459619140625	0		3.1662392578125	-0.2901836242675781	0		4.4918544921875	0.17123271179199218	0		5.97673095703125	0.5322026977539063	0		-0.36191989135742186	5.91401123046875	0		
0.002950795888900757	0.0031693079471588133	0		0.54626025390625	-2.53872216796875	0		-1.02867333984375	0.392714599609375	0		-0.538367431640625	-3.07352294921875	0		1.7132947998046875	-0.9799788818359375	0		3.148208251953125	-0.2850880432128906	0		4.49376953125	0.1720357666015625	0		5.97300341796875	0.5164406127929687	0		-0.36392596435546876	5.9169130859375	0		
0.0028418259620666504	0.003047023057937622	0		0.591941650390625	-2.5524951171875	0		-1.0287789306640625	0.392601318359375	0		-0.49776052856445313	-3.092215576171875	0		1.7019813232421874	-0.9939598999023438	0		3.14502685546875	-0.2901950378417969	0		4.493662109375	0.17187434387207032	0		5.97292578125	0.5161383056640625	0		-0.41318960571289065	5.90248486328125	0		
-0.004361693859100342	-0.002967895030975342	0		0.539890625	-2.545882568359375	0		-1.0339512939453126	0.38856646728515626	0		-0.5097777099609375	-3.083157470703125	0		1.738765380859375	-1.0006082153320313	0		3.144904541015625	-0.2903348083496094	0		4.48865673828125	0.17979312133789063	0		5.97264013671875	0.4812591857910156	0		-0.24589747619628907	5.9270205078125	0		
-4.529539942741394E-4	-1.2939900159835815E-4	0		0.5755660400390625	-2.558497314453125	0		-1.0290257568359376	0.3923984069824219	0		-0.4980616149902344	-3.0924267578125	0		1.692488525390625	-1.0100770263671874	0		3.144769287109375	-0.2904630126953125	0		4.49567919921875	0.19055526733398437	0		5.97274560546875	0.5155970458984375	0		-0.36414398193359376	5.91658056640625	0		
-0.026598749160766603	1.4226099848747254E-4	0		0.5535009765625	-2.55128662109375	0		-1.02917138671875	0.3923106994628906	0		-0.4941611022949219	-3.087574951171875	0		1.7182037353515625	-1.0195488891601563	0		3.156786865234375	-0.2787496337890625	0		4.4996162109375	0.19637275695800782	0		5.97264013671875	0.51536181640625	0		-0.3652376403808594	5.91750244140625	0		
0.002276979923248291	0.0026496779918670655	0		0.5943721923828125	-2.547952392578125	0		-1.0293323974609374	0.3922341613769531	0		-0.49434588623046877	-3.087655029296875	0		1.718835693359375	-1.033656982421875	0		3.1475234375	-0.2857271423339844	0		4.48966650390625	0.21139796447753906	0		5.97252392578125	0.5151461181640625	0		-0.4125959777832031	5.9010859375	0		
-9.415929913520813E-4	-3.791230022907257E-4	0		0.5391964111328125	-2.54625244140625	0		-1.03456201171875	0.38824130249023436	0		-0.46261895751953125	-3.093173828125	0		1.7525211181640625	-1.0432197265625	0		3.161329345703125	-0.2870191955566406	0		4.49357568359375	0.21723637390136719	0		5.97518017578125	0.5027391967773438	0		-0.36549380493164063	5.9173525390625	0		
-0.005168962001800537	-0.003380819082260132	0		0.5888717041015625	-2.5550205078125	0		-1.034744140625	0.3881914978027344	0		-0.5076564636230468	-3.080594482421875	0		1.7472286376953126	-1.0502216796875	0		3.12420166015625	-0.2825823059082031	0		4.4825908203125	0.23129408264160156	0		5.972064453125	0.48016049194335936	0		-0.36562954711914064	5.91729736328125	0		
0.0017254890203475951	0.0024750449657440186	0		0.5486470336914062	-2.555505859375	0		-1.0190162963867186	0.38193148803710936	0		-0.4929482421875	-3.085845458984375	0		1.7567735595703124	-1.0684228515625	0		3.133107421875	-0.27578536987304686	0		4.49648681640625	0.23700724792480468	0		5.97213134765625	0.5145780029296875	0		-0.39785702514648436	5.910708984375	0		
0.02653396987915039	0.0020915799140930175	0		0.5784540405273437	-2.55396630859375	0		-1.0192009887695312	0.38191314697265627	0		-0.5091568603515625	-3.084643798828125	0		1.7647127685546875	-1.058587158203125	0		3.15389892578125	-0.27714801025390623	0		4.4816552734375	0.26213534545898437	0		5.98991650390625	0.5293638916015625	0		-0.36293954467773437	5.9131884765625	0		
0.004407396793365478	0.006387487888336181	0		0.5543076782226563	-2.548649658203125	0		-1.0193812866210938	0.3819120788574219	0		-0.4543606262207031	-3.08343017578125	0		1.75637255859375	-1.0685111083984375	0		3.144753173828125	-0.2740776977539062	0		4.4936845703125	0.27688958740234376	0		5.977109375	0.55731689453125	0		-0.39907073974609375	5.91168798828125	0		
-0.0018724700212478637	-5.261600017547607E-4	0		0.5900269165039063	-2.5531669921875	0		-1.0195568237304689	0.381928466796875	0		-0.52251171875	-3.077459716796875	0		1.751076171875	-1.0754658203125	0		3.129569091796875	-0.27391275024414063	0		4.48860693359375	0.2838914794921875	0		5.97937841796875	0.4792178955078125	0		-0.3792484130859375	5.905412109375	0		
-0.002051487922668457	-5.107719898223877E-4	0		0.5378939819335937	-2.5464248046875	0		-1.0237855834960938	0.37801861572265627	0		-0.45683578491210936	-3.084370849609375	0		1.7647635498046874	-1.0836785888671876	0		3.149283935546875	-0.28123455810546877	0		4.48353271484375	0.29089926147460937	0		5.97439013671875	0.5017231750488281	0		-0.3661562194824219	5.91724853515625	0		
-0.0013437960147857665	-0.00849509334564209	0		0.5475377197265625	-2.55554736328125	0		-1.0199004516601562	0.38201007080078125	0		-0.5420081787109375	-3.079126220703125	0		1.7563236083984375	-1.1005679931640624	0		3.138172119140625	-0.27611026000976563	0		4.48462939453125	0.30982614135742187	0		5.974263671875	0.5015733947753906	0		-0.36523553466796876	5.9162705078125	0		
-0.009224124908447266	0.012658671379089355	0		0.5414901123046875	-2.5424326171875	0		-1.0141438598632813	0.37698867797851565	0		-0.48214453125	-3.071927001953125	0		1.7720482177734376	-1.105789794921875	0		3.145256103515625	-0.25723532104492186	0		4.4797412109375	0.32984344482421873	0		5.97639697265625	0.5221121826171875	0		-0.38421835327148435	5.92158984375	0		
4.513329863548279E-4	0.002571921110153198	0		0.5672203979492187	-2.544760498046875	0		-1.020244873046875	0.38215093994140625	0		-0.514320556640625	-3.06640625	0		1.76674267578125	-1.1127032470703124	0		3.14494091796875	-0.266250732421875	0		4.48285205078125	0.3497523498535156	0		5.97626806640625	0.5219717407226563	0		-0.3653395690917969	5.9163828125	0		
-0.0027738170623779297	-3.1952399015426635E-4	0		0.5888604736328125	-2.553021728515625	0		-1.0144904174804688	0.37715567016601564	0		-0.48062283325195315	-3.069813232421875	0		1.7834603271484375	-1.117922119140625	0		3.147951171875	-0.2523046875	0		4.482677734375	0.34971063232421873	0		5.97613916015625	0.5218357543945312	0		-0.365380859375	5.91645703125	0		
-0.013812511444091798	0.009910709381103515	0		0.5626591796875	-2.54959130859375	0		-1.0146636962890625	0.37725506591796876	0		-0.5236494750976562	-3.0531142578125	0		1.813074951171875	-1.130320556640625	0		3.133763671875	-0.2521095886230469	0		4.47087646484375	0.3758410034179688	0		5.983140625	0.521454833984375	0		-0.3664007873535156	5.9175546875	0		
